PathFileType	4	(X/Y/Z)	C:\Users\Basilio\Documents\Thesis Gigler\squatting_fais\c3dfiles\039\SJ_pre1\markers_experimental.trc
DataRate	CameraRate	NumFrames	NumMarkers	Units	OrigDataRate	OrigDataStartFrame	OrigNumFrames
200.000000	200.000000	4	61	mm	200.000000	464	1858
Frame#	Time	FHD			LBHD			RBHD			C7			T10			CLAV			LSHO			LUUPA			LMUPA			LDUPA			LLEP			LMEP			LRAD			LUL			LRFIN			RSHO			RUPA1			RMUPA			RDUPA			RLEP			RMEP			RRAD			RUL			RUFIN			LASI			RASI			USACR			LSACR			RSACR			LTHI1			LTHI2			LTHI3			LTHI4			LLFC			LMFC			LTIB1			LTIB2			LTIB3			LTIB4			LLMAL			LMMAL			LHEE			LMT1			LMT2			LMT5			RTHI			RTHI2			RTHI3			RTHI4			RLFC			RMFC			RTIB1			RTIB2			RTIB3			RTIB4			RLMAL			RMMAL			RHEE			RMT1			RMT2			RMT5			
		X1	Y1	Z1	X2	Y2	Z2	X3	Y3	Z3	X4	Y4	Z4	X5	Y5	Z5	X6	Y6	Z6	X7	Y7	Z7	X8	Y8	Z8	X9	Y9	Z9	X10	Y10	Z10	X11	Y11	Z11	X12	Y12	Z12	X13	Y13	Z13	X14	Y14	Z14	X15	Y15	Z15	X16	Y16	Z16	X17	Y17	Z17	X18	Y18	Z18	X19	Y19	Z19	X20	Y20	Z20	X21	Y21	Z21	X22	Y22	Z22	X23	Y23	Z23	X24	Y24	Z24	X25	Y25	Z25	X26	Y26	Z26	X27	Y27	Z27	X28	Y28	Z28	X29	Y29	Z29	X30	Y30	Z30	X31	Y31	Z31	X32	Y32	Z32	X33	Y33	Z33	X34	Y34	Z34	X35	Y35	Z35	X36	Y36	Z36	X37	Y37	Z37	X38	Y38	Z38	X39	Y39	Z39	X40	Y40	Z40	X41	Y41	Z41	X42	Y42	Z42	X43	Y43	Z43	X44	Y44	Z44	X45	Y45	Z45	X46	Y46	Z46	X47	Y47	Z47	X48	Y48	Z48	X49	Y49	Z49	X50	Y50	Z50	X51	Y51	Z51	X52	Y52	Z52	X53	Y53	Z53	X54	Y54	Z54	X55	Y55	Z55	X56	Y56	Z56	X57	Y57	Z57	X58	Y58	Z58	X59	Y59	Z59	X60	Y60	Z60	X61	Y61	Z61	

465	2.32	-159.5281372070313	1698.546142578125	-819.8447875976565	-303.3764648437501	1652.629028320313	-951.1360473632815	-288.8426513671876	1662.7666015625	-810.224792480469	-352.5095520019532	1528.093383789063	-894.9820556640627	-432.7530212402345	1218.137084960938	-910.3717041015627	-226.4380035400391	1428.177978515625	-890.741149902344	-260.2473449707032	1495.078979492188	-1079.314697265625	-370.7278442382813	1392.269165039063	-1250.81201171875	-343.6253356933594	1349.557861328125	-1253.989868164063	-385.5775451660157	1341.942749023438	-1297.309814453125	-397.8795776367189	1277.7158203125	-1327.964599609375	-477.7996215820314	1279.378540039063	-1288.0361328125	-431.6944580078126	1056.67333984375	-1138.77978515625	-394.6415405273439	1022.311340332031	-1195.298828125	-379.3914489746094	1048.218872070313	-1092.687866210938	-265.6177062988282	1475.607543945313	-699.9370727539064	-403.2928161621095	1382.610473632813	-553.0252075195314	-379.5722961425782	1339.852905273438	-540.7568359375001	-430.007537841797	1335.495727539063	-508.2248840332032	-437.8490295410157	1270.531127929688	-477.448699951172	-514.4428710937501	1271.652709960938	-524.4371337890626	-426.2596435546876	1073.171630859375	-700.6415405273439	-417.024627685547	1021.350524902344	-644.2768554687501	-366.9768066406251	1046.748291015625	-741.8287353515626	-296.7406005859376	1006.318664550781	-1020.828063964844	-302.9790039062501	988.1125488281252	-808.9348144531252	-471.1435852050782	1091.490478515625	-911.9443969726565	-481.507781982422	1062.456787109375	-941.6453247070315	-486.5345153808595	1061.409057617188	-883.506042480469	-314.9262390136719	750.1545410156251	-1124.466430664063	-262.2608337402344	684.6253051757814	-1134.816772460938	-216.1300201416016	700.1607055664064	-1129.868408203125	-272.0950622558594	625.6122436523439	-1121.759765625	-239.1024017333985	514.4494018554689	-1127.234252929688	-199.8653564453126	489.1649475097657	-1016.908447265625	-196.6124877929688	364.9561462402344	-1109.968139648438	-269.6046447753907	338.3684692382813	-1149.86083984375	-231.3698272705079	327.3495483398438	-1133.2705078125	-247.8218841552735	247.6132354736329	-1092.53662109375	-347.8384094238282	97.74294281005862	-1122.803344726563	-323.9980163574219	93.65512847900392	-1037.940063476563	-416.935028076172	41.42062377929688	-1080.266479492188	-181.7992401123047	55.3475685119629	-1091.187133789063	-192.7539520263672	55.58998870849611	-1132.632690429688	-242.1728515625001	32.1789665222168	-1178.873291015625	-317.7491149902344	753.7819213867189	-699.1950073242189	-263.3365173339844	716.2149658203126	-685.1750488281251	-233.1898040771485	729.3659057617189	-690.8302001953126	-262.5865783691407	630.8657226562501	-682.8959350585939	-252.5845336914063	498.6650390625001	-688.2958984375001	-207.8701629638672	481.7574462890626	-795.0650634765627	-241.0521392822266	290.9909667968751	-688.0006103515626	-335.3725585937501	239.8553466796876	-680.0265502929689	-290.9635925292969	224.9019470214844	-678.9750976562501	-278.6763610839844	171.5684509277344	-704.1784057617189	-358.7248229980469	90.97396850585939	-681.0454101562501	-323.4598083496094	98.13761138916018	-764.8487548828126	-424.4756469726564	40.56736755371094	-730.5145874023439	-190.6412200927735	51.5641441345215	-710.2836914062501	-200.4765167236329	58.19799041748048	-665.6235961914064	-256.7583618164063	31.39180374145509	-618.0250244140626	
466	2.325	-158.5698547363282	1697.05029296875	-819.7312622070315	-303.5726928710938	1651.749389648438	-950.508239746094	-287.6729125976563	1661.259643554688	-810.3201293945315	-351.6962585449219	1527.2470703125	-895.0784912109377	-432.4144592285157	1217.607666015625	-910.0154418945315	-226.0401153564454	1426.792724609375	-890.5847778320315	-259.5458068847657	1494.03076171875	-1079.442138671875	-369.8935241699219	1391.611083984375	-1250.904174804688	-343.1302185058594	1348.700927734375	-1253.98876953125	-385.0232849121095	1341.121215820313	-1297.361328125	-397.4233398437501	1277.105834960938	-1328.152099609375	-477.4158020019532	1278.912719726563	-1288.279663085938	-432.1839599609376	1056.169189453125	-1138.943603515625	-395.0375976562501	1021.773803710938	-1195.231323242188	-380.0012207031251	1047.64306640625	-1092.751220703125	-265.1433715820313	1474.781616210938	-699.8060913085939	-402.7691345214845	1381.872314453125	-553.0178833007814	-379.0823364257813	1339.3427734375	-540.3743896484376	-429.9734802246095	1334.885375976563	-508.1495971679689	-437.738250732422	1269.893188476563	-477.4743652343751	-514.5665283203126	1271.693359375	-524.5090942382814	-426.9294433593751	1072.605834960938	-700.7647705078126	-417.7801208496095	1020.698791503906	-644.6726074218751	-367.7008361816407	1046.009155273438	-741.9667358398439	-297.7707519531251	1005.530212402344	-1020.84521484375	-303.8844299316407	987.045104980469	-808.934997558594	-471.7926025390626	1090.603149414063	-911.7023925781252	-482.2998657226564	1061.981811523438	-941.7348632812502	-487.3703613281251	1060.818481445313	-883.3992309570315	-315.4551696777344	749.9033813476564	-1124.639038085938	-262.4915771484376	684.3154296875001	-1135.030883789063	-216.3391265869141	699.9125976562501	-1130.126586914063	-272.0824279785157	625.3028564453126	-1121.879516601563	-238.8050842285157	514.3023071289064	-1127.369384765625	-199.5734558105469	489.058319091797	-1017.051635742188	-196.2374114990235	364.7461547851563	-1110.027099609375	-269.3555908203126	338.2844848632813	-1149.952026367188	-231.1158447265626	327.2639160156251	-1133.34423828125	-247.6177978515626	247.5738830566407	-1092.677124023438	-347.8233642578126	97.71662902832034	-1122.819946289063	-323.9978332519532	93.61842346191408	-1037.93017578125	-416.9332885742189	41.42461776733399	-1080.257202148438	-182.2778625488282	55.32738113403322	-1091.641235351563	-192.8739318847657	55.40293502807619	-1132.448608398438	-241.9729766845704	32.14009857177735	-1178.998901367188	-318.2285461425782	753.3018188476564	-699.1140747070314	-263.9163818359376	715.9025878906251	-684.9432983398439	-233.6000366210938	729.1942138671876	-690.6777954101564	-262.6810302734376	630.6218261718751	-682.7077026367189	-252.3567810058594	498.5693969726564	-688.0420532226564	-207.5867309570313	481.6789550781251	-794.7734985351565	-240.9360046386719	290.8830261230469	-687.9004516601564	-335.2292175292969	239.8158721923829	-679.9800415039064	-290.8725891113282	224.7760009765626	-679.0065307617189	-278.6061706542969	171.4646453857422	-704.0800781250001	-358.7026672363282	90.97893524169923	-681.0441284179689	-323.4143676757813	98.12836456298831	-764.8466796875001	-424.4579162597657	40.5729103088379	-730.5218505859376	-190.6736755371094	51.57567214965822	-710.2044067382814	-200.5293121337891	58.27920532226564	-665.6287231445314	-256.7580261230469	31.40627479553223	-618.0559692382814	
467	2.33	-157.6125030517578	1695.961059570313	-819.5613403320315	-302.5774841308594	1650.401123046875	-950.4592895507815	-286.9360656738282	1660.330078125	-810.1057128906252	-350.9051818847657	1526.467041015625	-895.1219482421877	-432.6357727050782	1216.981201171875	-910.1098632812502	-225.5357360839844	1425.751342773438	-890.5773925781252	-258.9708251953126	1492.909057617188	-1079.321533203125	-369.2431640625001	1390.853759765625	-1251.084228515625	-342.6639709472657	1347.745727539063	-1254.13671875	-384.6360168457032	1340.326293945313	-1297.475219726563	-396.784149169922	1276.552734375	-1328.438842773438	-477.015594482422	1278.444213867188	-1288.518188476563	-432.734588623047	1055.641845703125	-1139.09521484375	-395.7438354492189	1020.94091796875	-1195.387939453125	-380.8138427734376	1046.875854492188	-1092.721069335938	-264.4667358398438	1473.438598632813	-699.9312133789064	-402.3993530273439	1381.11962890625	-552.9909667968751	-379.0364685058594	1338.18310546875	-540.6397705078126	-429.7226562500001	1334.23876953125	-508.0728454589845	-437.7613830566407	1269.188842773438	-477.5889587402345	-514.4456176757814	1270.928955078125	-524.3624267578126	-427.7657470703126	1071.982666015625	-700.8988647460939	-418.6216125488282	1020.055908203125	-644.7390136718751	-368.4672546386719	1045.395141601563	-742.0170288085939	-298.5846252441407	1004.428527832031	-1020.994934082031	-304.9847412109376	986.2666625976565	-808.9385986328127	-472.4267883300782	1090.004638671875	-911.8381958007815	-483.0358886718751	1061.536987304688	-941.8203125000002	-488.0056762695314	1060.381469726563	-883.3732910156252	-315.7693481445313	749.2605590820314	-1124.841552734375	-262.7203369140626	683.9452514648439	-1135.260986328125	-216.6027832031251	699.5684204101564	-1130.322387695313	-272.1173400878907	624.8973999023439	-1122.107788085938	-238.4432678222657	514.0910034179689	-1127.455444335938	-199.1693572998047	488.7486877441407	-1017.265808105469	-195.8835906982422	364.4299316406251	-1110.214721679688	-269.1267700195313	338.1240234375001	-1150.004516601563	-230.7506103515626	327.2014770507813	-1133.542846679688	-247.3447723388672	247.5723724365235	-1092.7724609375	-347.7752685546876	97.72875976562503	-1122.823120117188	-323.9503173828126	93.63689422607423	-1037.917602539063	-416.9513244628907	41.40144348144532	-1080.232543945313	-181.8826751708985	55.32294082641603	-1091.210083007813	-192.8241271972657	55.61157226562501	-1132.6494140625	-242.1981048583985	32.17931747436524	-1178.907836914063	-318.7438049316407	752.9232788085939	-698.9807128906251	-264.1553344726563	716.3834838867189	-684.7266235351564	-234.0757141113282	729.0633544921876	-690.5353393554689	-262.8065185546876	630.3887329101564	-682.5684204101564	-252.0933837890626	498.5196533203126	-687.7035522460939	-207.3550262451172	481.6348266601564	-794.4768676757815	-240.8192596435547	290.8789978027344	-687.7321166992189	-335.1221923828126	239.7595520019532	-679.8653564453126	-290.7375488281251	224.7283630371094	-678.8814086914064	-278.5537109375001	171.44970703125	-704.0105590820314	-358.6921081542969	90.98375701904298	-681.0285644531251	-323.3923950195313	98.15305328369143	-764.8051757812501	-424.4979248046876	40.58855819702149	-730.5281982421876	-190.6272888183594	51.56764602661134	-710.2520751953126	-200.5347747802735	58.31136703491212	-665.6257934570314	-256.7828369140626	31.40949821472169	-618.0873413085939	
468	2.335	-156.7625274658203	1694.510986328125	-819.2988891601565	-301.5820617675782	1649.323852539063	-950.5208740234377	-286.2264404296876	1659.023193359375	-810.0683593750002	-350.1430664062501	1525.529418945313	-895.0664062500002	-432.9358520507814	1216.409423828125	-910.1608886718752	-225.2352447509766	1424.381713867188	-890.536315917969	-258.1057739257813	1491.83642578125	-1079.373168945313	-368.5483703613282	1390.047973632813	-1251.1123046875	-342.1375732421876	1346.978271484375	-1254.104248046875	-383.9949035644532	1339.66552734375	-1297.644653320313	-396.4528198242189	1275.884887695313	-1328.577026367188	-476.5484008789064	1277.982788085938	-1288.79736328125	-432.8887634277345	1055.049682617188	-1139.160278320313	-396.2394409179689	1020.279663085938	-1195.64208984375	-381.3656616210938	1046.233276367188	-1092.812622070313	-263.8893737792969	1472.397216796875	-699.9345703125001	-402.0323791503907	1380.48828125	-553.0369262695314	-378.6899108886719	1337.415283203125	-540.6661376953126	-429.3518371582032	1333.574462890625	-508.2490234375001	-437.8439331054689	1268.59521484375	-477.4953918457032	-514.4897460937501	1270.636474609375	-524.3966064453126	-428.5105285644532	1071.367919921875	-700.9490966796876	-419.5615844726564	1019.347534179688	-644.6987915039064	-369.2206420898438	1044.604858398438	-742.1568603515626	-299.2020874023438	1003.427978515625	-1021.109558105469	-305.7091064453126	985.3015747070315	-808.8670654296877	-473.8900146484376	1089.874267578125	-911.7801513671877	-483.8428649902345	1060.983276367188	-941.9606933593752	-488.5748596191407	1059.793579101563	-883.3986816406252	-316.2851562500001	748.7029418945314	-1124.9560546875	-262.9866943359376	683.5844116210939	-1135.499267578125	-216.7654266357422	699.2925415039064	-1130.499877929688	-272.1251525878907	624.5062255859376	-1122.235107421875	-238.094711303711	513.8994750976564	-1127.669799804688	-198.7509002685547	488.713104248047	-1017.374755859375	-195.4748992919922	364.3069152832032	-1110.301025390625	-268.8815307617188	337.9761657714844	-1150.148315429688	-230.4528198242188	327.1750793457032	-1133.580810546875	-247.1737213134766	247.4527740478516	-1092.866821289063	-347.7240905761719	97.65466308593753	-1122.835815429688	-323.9143676757813	93.61721038818361	-1037.961547851563	-416.9263916015626	41.38876724243165	-1080.2275390625	-182.2808990478516	55.31193923950197	-1091.672729492188	-192.8643493652344	55.61424255371095	-1132.69580078125	-242.2034149169922	32.21136093139649	-1178.921997070313	-319.3166809082032	752.4683227539064	-698.7997436523439	-264.4508361816407	716.1297607421876	-684.5992431640626	-234.5537414550782	728.7846069335939	-690.3333740234376	-262.8674621582032	630.0706176757814	-682.4133300781251	-252.3050842285157	498.0493774414064	-687.8953247070314	-207.1732635498047	481.5679626464845	-794.236755371094	-240.6934967041016	290.7676391601563	-687.5556640625001	-334.9480590820313	239.7230682373047	-679.7647094726564	-290.5640258789063	224.7767486572266	-678.7559814453126	-278.5456237792969	171.3575134277344	-703.9677124023439	-358.6861572265626	90.96752929687501	-681.0595703125001	-323.4065856933594	98.11381530761722	-764.8145141601564	-424.4983825683595	40.56219863891602	-730.5261840820314	-190.6532592773438	51.62796020507814	-710.2271728515626	-200.5830383300782	58.42382812500001	-665.6174316406251	-256.7919921875001	31.44720458984376	-618.0606689453126	
